<?xml version="1.0" standalone="no"?>
<!DOCTYPE svg PUBLIC "-//W3C//DTD SVG 20010904//EN"
 "http://www.w3.org/TR/2001/REC-SVG-20010904/DTD/svg10.dtd">
<svg version="1.0" xmlns="http://www.w3.org/2000/svg"
 width="256.000000pt" height="256.000000pt" viewBox="0 0 256.000000 256.000000"
 preserveAspectRatio="xMidYMid meet">
<metadata>
Created by potrace 1.14, written by Peter Selinger 2001-2017
</metadata>
<g transform="translate(0.000000,256.000000) scale(0.100000,-0.100000)"
fill="#000000" stroke="none">
<path d="M0 1280 l0 -1280 1280 0 1280 0 0 1280 0 1280 -1280 0 -1280 0 0
-1280z m1104 871 c42 -21 83 -52 119 -91 l56 -60 36 45 c82 99 204 151 335
142 214 -14 340 -181 340 -451 0 -71 -5 -113 -21 -159 -44 -132 -148 -272
-317 -427 -51 -46 -95 -93 -99 -104 -3 -12 -6 -60 -5 -108 2 -98 -8 -138 -37
-138 -29 0 -46 29 -46 79 0 39 -3 46 -20 46 -33 0 -40 -44 -27 -150 15 -122 3
-170 -43 -170 l-30 0 -5 95 c-4 80 -8 95 -23 98 -12 3 -22 -8 -33 -34 -13 -32
-15 -63 -10 -179 3 -77 9 -165 12 -196 5 -52 4 -58 -22 -78 -33 -26 -37 -26
-70 2 -34 29 -35 76 -5 192 26 100 33 303 12 328 -36 44 -58 -4 -41 -92 14
-73 13 -134 -3 -155 -18 -25 -58 -17 -76 16 -14 24 -13 37 2 130 28 168 19
283 -23 283 -10 0 -17 -14 -20 -45 -4 -40 -8 -45 -30 -45 -24 0 -25 3 -31 78
l-5 77 -117 118 c-175 175 -248 283 -282 417 -40 158 8 370 108 473 76 78 145
104 270 98 73 -3 98 -9 151 -35z m434 -1534 c33 -122 28 -157 -25 -157 -37 0
-49 39 -35 109 7 31 12 71 12 87 0 29 7 44 19 44 3 0 16 -37 29 -83z"/>
<path d="M847 2160 c-164 -42 -260 -198 -261 -425 0 -88 4 -109 31 -177 41
-105 122 -214 255 -344 60 -60 114 -116 119 -126 5 -9 9 -46 9 -82 0 -37 4
-66 10 -66 6 0 10 17 10 39 0 68 49 82 83 23 25 -43 26 -155 3 -272 -20 -95
-12 -144 22 -138 24 4 26 38 11 136 -15 99 -7 135 32 140 41 5 60 -27 69 -115
4 -43 8 -63 9 -45 3 71 47 131 85 116 22 -9 30 -40 27 -121 -1 -45 2 -74 10
-78 23 -15 30 21 23 125 -9 149 -8 162 22 188 24 21 28 21 48 9 16 -11 22 -28
26 -67 3 -30 10 -55 16 -57 16 -5 26 60 19 121 -12 93 3 122 115 225 172 159
291 327 319 451 38 167 -20 391 -124 476 -152 124 -388 86 -516 -83 l-42 -57
-16 25 c-38 58 -108 121 -166 150 -69 34 -178 46 -248 29z"/>
<path d="M1231 610 c0 -25 -10 -79 -21 -119 -12 -41 -20 -92 -18 -114 3 -47
28 -69 56 -51 23 15 26 38 13 114 -6 36 -15 99 -20 140 -7 60 -9 66 -10 30z"/>
<path d="M1501 571 c-15 -53 -7 -94 17 -89 23 4 26 43 9 93 l-14 40 -12 -44z"/>
</g>
</svg>
