<?xml version="1.0" standalone="no"?>
<!DOCTYPE svg PUBLIC "-//W3C//DTD SVG 20010904//EN"
 "http://www.w3.org/TR/2001/REC-SVG-20010904/DTD/svg10.dtd">
<svg version="1.0" xmlns="http://www.w3.org/2000/svg"
 width="256.000000pt" height="256.000000pt" viewBox="0 0 256.000000 256.000000"
 preserveAspectRatio="xMidYMid meet">
<metadata>
Created by potrace 1.14, written by Peter Selinger 2001-2017
</metadata>
<g transform="translate(0.000000,256.000000) scale(0.100000,-0.100000)"
fill="#000000" stroke="none">
<path d="M0 1280 l0 -1280 1280 0 1280 0 0 1280 0 1280 -1280 0 -1280 0 0
-1280z m1071 880 c62 -23 136 -78 173 -127 l30 -39 65 66 c101 102 209 141
335 122 187 -29 298 -175 313 -407 13 -202 -56 -336 -289 -568 -77 -77 -143
-150 -149 -164 -5 -13 -9 -68 -9 -122 0 -90 -8 -121 -31 -121 -22 0 -39 35
-39 80 0 52 -18 71 -44 45 -22 -23 -28 -68 -17 -131 15 -82 14 -146 -5 -172
-38 -54 -69 -9 -60 87 7 73 -6 107 -36 96 -40 -16 -58 -161 -37 -300 19 -128
18 -174 -6 -191 -29 -21 -61 -17 -79 11 -21 32 -20 74 5 165 24 91 36 292 20
333 -8 21 -17 28 -34 25 -20 -3 -22 -8 -21 -58 0 -30 4 -82 8 -115 7 -53 6
-63 -12 -85 -17 -20 -24 -23 -39 -14 -39 24 -46 58 -27 147 21 96 23 242 5
275 -19 35 -45 24 -49 -20 -4 -45 -25 -66 -47 -48 -11 9 -15 32 -15 81 l0 69
-125 124 c-231 232 -311 399 -285 602 27 213 119 335 280 371 66 15 156 8 221
-17z m468 -1568 c21 -87 20 -107 -9 -122 -21 -11 -47 6 -51 35 -5 32 23 187
31 178 4 -4 17 -45 29 -91z"/>
<path d="M804 2150 c-77 -31 -129 -81 -168 -163 -73 -155 -76 -316 -7 -471 34
-79 143 -216 256 -324 l105 -100 0 -58 c0 -68 8 -106 21 -98 5 3 9 20 9 38 0
42 30 72 57 57 42 -22 55 -157 28 -281 -24 -109 -17 -160 22 -160 27 0 32 46
16 140 -14 83 -14 92 2 116 20 31 41 28 69 -9 18 -25 20 -40 18 -135 -2 -72
-11 -140 -28 -211 -27 -112 -25 -154 8 -172 53 -28 73 23 52 127 -11 53 -15
114 -13 195 3 100 7 122 25 146 12 15 30 29 42 31 32 5 45 -31 40 -110 -6 -77
7 -113 32 -84 15 19 17 78 5 191 -7 78 -7 82 18 110 37 43 60 26 67 -46 4 -46
8 -54 25 -54 19 0 20 8 25 117 5 127 5 125 85 197 178 160 303 327 341 456 47
162 1 386 -102 487 -65 66 -114 83 -234 83 -91 0 -112 -3 -155 -25 -49 -24
-151 -115 -174 -155 -11 -19 -12 -19 -33 10 -54 71 -94 107 -156 137 -56 28
-77 33 -156 35 -73 3 -101 -1 -142 -17z"/>
<path d="M1500 585 c-17 -58 -10 -99 18 -103 20 -3 22 1 21 35 0 21 -6 54 -13
73 l-13 35 -13 -40z"/>
</g>
</svg>
